<svg width="444" height="448" viewBox="0 0 444 448" fill="none" xmlns="http://www.w3.org/2000/svg">
<g clip-path="url(#clip0_16_2)">
<path fill-rule="evenodd" clip-rule="evenodd" d="M19.7688 201.666C7.36777 201.666 -1.34584 191.687 0.632828 179.51C0.632828 179.51 -0.815038 186.656 0.669286 179.333C21.3666 77.0267 111.8 0 220.216 0C343.924 0 444.216 100.287 444.216 224C444.216 347.713 343.924 448 220.216 448C111.919 448 21.576 371.145 0.735957 269C-0.779643 261.573 0.626582 268.464 0.626582 268.464C-1.20155 256.245 7.37658 246.333 19.7666 246.333H231.513C239.768 246.333 241.696 251.067 235.826 256.901L195.091 297.458C173.976 318.521 205.659 350.109 226.774 329.051L318.138 239.254C326.971 230.603 326.956 216.623 318.028 207.962L226.774 118.935C205.659 97.8779 173.976 129.472 195.091 150.529L235.826 191.091C241.701 196.93 239.732 201.659 231.513 201.659L19.7688 201.666Z" fill="black"/>
</g>
<defs>
<clipPath id="clip0_16_2">
<rect width="444" height="448" fill="white"/>
</clipPath>
</defs>
</svg>
