<svg width="444" height="448" viewBox="0 0 444 448" fill="none" xmlns="http://www.w3.org/2000/svg">
<g clip-path="url(#clip0_16_2)">
<path fill-rule="evenodd" clip-rule="evenodd" d="M424.231 246.334C436.632 246.334 445.346 256.313 443.367 268.49C443.367 268.49 444.815 261.344 443.331 268.667C422.633 370.973 332.2 448 223.784 448C100.076 448 -0.215964 347.713 -0.215975 224C-0.215986 100.287 100.076 1.67153e-05 223.784 5.90045e-06C332.081 -3.5672e-06 422.424 76.8547 443.264 179C444.78 186.427 443.373 179.536 443.373 179.536C445.202 191.755 436.623 201.667 424.233 201.667L212.487 201.667C204.232 201.667 202.304 196.933 208.174 191.099L248.909 150.542C270.024 129.479 238.341 97.8914 217.226 118.949L125.862 208.746C117.029 217.397 117.044 231.377 125.972 240.038L217.226 329.065C238.341 350.122 270.024 318.528 248.909 297.471L208.174 256.909C202.299 251.07 204.268 246.341 212.487 246.341L424.231 246.334Z" fill="black"/>
</g>
<defs>
<clipPath id="clip0_16_2">
<rect width="444" height="448" fill="white" transform="translate(444 448) rotate(180)"/>
</clipPath>
</defs>
</svg>
